Khula-wt439.67.ufo
<glyph name="quotedbl.deva" format="1">
  <advance width="843"/>
  <unicode hex="0022"/>
  <outline>
    <contour>
      <point x="347" y="1316" type="line"/>
      <point x="311" y="841" type="line"/>
      <point x="176" y="841" type="line"/>
      <point x="139" y="1316" type="line"/>
    </contour>
    <contour>
      <point x="705" y="1316" type="line"/>
      <point x="668" y="841" type="line"/>
      <point x="533" y="841" type="line"/>
      <point x="496" y="1316" type="line"/>
    </contour>
  </outline>
</glyph>
<glyph name="hyphen.deva" format="1">
  <advance width="637"/>
  <unicode hex="002D"/>
  <outline>
    <contour>
      <point x="82" y="407" type="line"/>
      <point x="82" y="581" type="line"/>
      <point x="542" y="581" type="line"/>
      <point x="542" y="407" type="line"/>
    </contour>
  </outline>
</glyph>
<glyph name="slash.deva" format="1">
  <advance width="714"/>
  <unicode hex="002F"/>
  <outline>
    <contour>
      <point x="699" y="1321" type="line"/>
      <point x="208" y="-5" type="line"/>
      <point x="16" y="-5" type="line"/>
      <point x="506" y="1321" type="line"/>
    </contour>
  </outline>
</glyph>
<glyph name="greater.deva" format="1">
  <advance width="1051"/>
  <unicode hex="003E"/>
  <outline>
    <contour>
      <point x="86" y="373" type="line"/>
      <point x="751" y="648" type="line"/>
      <point x="86" y="963" type="line"/>
      <point x="86" y="1132" type="line"/>
      <point x="963" y="695" type="line"/>
      <point x="963" y="589" type="line"/>
      <point x="86" y="202" type="line"/>
    </contour>
  </outline>
</glyph>
<glyph name="F" format="1">
  <advance width="963"/>
  <unicode hex="0046"/>
  <outline>
    <contour>
      <point x="377" y="0" type="line"/>
      <point x="170" y="0" type="line"/>
      <point x="170" y="1316" type="line"/>
      <point x="916" y="1316" type="line"/>
      <point x="916" y="1140" type="line"/>
      <point x="377" y="1140" type="line"/>
      <point x="377" y="720" type="line"/>
      <point x="881" y="720" type="line"/>
      <point x="881" y="544" type="line"/>
      <point x="377" y="544" type="line"/>
    </contour>
  </outline>
</glyph>
<glyph name="I" format="1">
  <advance width="549"/>
  <unicode hex="0049"/>
  <outline>
    <contour>
      <point x="170" y="0" type="line"/>
      <point x="170" y="1316" type="line"/>
      <point x="378" y="1316" type="line"/>
      <point x="378" y="0" type="line"/>
    </contour>
  </outline>
</glyph>
<glyph name="X" format="1">
  <advance width="1137"/>
  <unicode hex="0058"/>
  <outline>
    <contour>
      <point x="1130" y="0" type="line"/>
      <point x="892" y="0" type="line"/>
      <point x="564" y="534" type="line"/>
      <point x="233" y="0" type="line"/>
      <point x="6" y="0" type="line"/>
      <point x="444" y="684" type="line"/>
      <point x="35" y="1316" type="line"/>
      <point x="265" y="1316" type="line"/>
      <point x="568" y="826" type="line"/>
      <point x="870" y="1316" type="line"/>
      <point x="1098" y="1316" type="line"/>
      <point x="688" y="680" type="line"/>
    </contour>
  </outline>
</glyph>
<glyph name="Y" format="1">
  <advance width="1084"/>
  <unicode hex="0059"/>
  <outline>
    <contour>
      <point x="542" y="704" type="line"/>
      <point x="859" y="1316" type="line"/>
      <point x="1084" y="1316" type="line"/>
      <point x="646" y="511" type="line"/>
      <point x="646" y="0" type="line"/>
      <point x="437" y="0" type="line"/>
      <point x="437" y="503" type="line"/>
      <point x="0" y="1316" type="line"/>
      <point x="226" y="1316" type="line"/>
    </contour>
  </outline>
</glyph>
<glyph name="Z" format="1">
  <advance width="1072"/>
  <unicode hex="005A"/>
  <outline>
    <contour>
      <point x="1006" y="0" type="line"/>
      <point x="69" y="0" type="line"/>
      <point x="69" y="147" type="line"/>
      <point x="732" y="1138" type="line"/>
      <point x="88" y="1138" type="line"/>
      <point x="88" y="1316" type="line"/>
      <point x="987" y="1316" type="line"/>
      <point x="987" y="1169" type="line"/>
      <point x="324" y="179" type="line"/>
      <point x="1006" y="179" type="line"/>
    </contour>
  </outline>
</glyph>
<glyph name="bracketleft.deva" format="1">
  <advance width="605"/>
  <unicode hex="005B"/>
  <outline>
    <contour>
      <point x="559" y="-297" type="line"/>
      <point x="137" y="-297" type="line"/>
      <point x="137" y="1326" type="line"/>
      <point x="559" y="1326" type="line"/>
      <point x="559" y="1171" type="line"/>
      <point x="325" y="1171" type="line"/>
      <point x="325" y="-142" type="line"/>
      <point x="559" y="-142" type="line"/>
    </contour>
  </outline>
</glyph>
<glyph name="underscore.deva" format="1">
  <advance width="852"/>
  <unicode hex="005F"/>
  <outline>
    <contour>
      <point x="856" y="-299" type="line"/>
      <point x="-4" y="-299" type="line"/>
      <point x="-4" y="-154" type="line"/>
      <point x="856" y="-154" type="line"/>
    </contour>
  </outline>
</glyph>
<glyph name="k" format="1">
  <advance width="1034"/>
  <unicode hex="006B"/>
  <outline>
    <contour>
      <point x="348" y="523" type="line"/>
      <point x="379" y="569"/>
      <point x="417" y="618"/>
      <point x="464" y="671" type="curve" smooth="yes"/>
      <point x="758" y="995" type="line"/>
      <point x="993" y="995" type="line"/>
      <point x="606" y="571" type="line"/>
      <point x="1020" y="0" type="line"/>
      <point x="779" y="0" type="line"/>
      <point x="464" y="439" type="line"/>
      <point x="352" y="344" type="line"/>
      <point x="352" y="0" type="line"/>
      <point x="148" y="0" type="line"/>
      <point x="148" y="1400" type="line"/>
      <point x="352" y="1400" type="line"/>
      <point x="352" y="710" type="line"/>
      <point x="352" y="660"/>
      <point x="348" y="598"/>
      <point x="341" y="523" type="curve"/>
    </contour>
  </outline>
</glyph>
<glyph name="l" format="1">
  <advance width="501"/>
  <unicode hex="006C"/>
  <outline>
    <contour>
      <point x="352" y="0" type="line"/>
      <point x="148" y="0" type="line"/>
      <point x="148" y="1400" type="line"/>
      <point x="352" y="1400" type="line"/>
    </contour>
  </outline>
</glyph>
<glyph name="o" format="1">
  <advance width="1129"/>
  <unicode hex="006F"/>
  <outline>
    <contour>
      <point x="1033" y="499" type="curve"/>
      <point x="1033" y="336"/>
      <point x="991" y="210"/>
      <point x="907" y="118" type="curve" smooth="yes"/>
      <point x="824" y="28"/>
      <point x="709" y="-18"/>
      <point x="561" y="-18" type="curve" smooth="yes"/>
      <point x="325" y="-20"/>
      <point x="155" y="141"/>
      <point x="133" y="395" type="curve" smooth="yes"/>
      <point x="108" y="538"/>
      <point x="125" y="664"/>
      <point x="184" y="773" type="curve" smooth="yes"/>
      <point x="244" y="883"/>
      <point x="337" y="951"/>
      <point x="465" y="976" type="curve" smooth="yes"/>
      <point x="590" y="1001"/>
      <point x="705" y="980"/>
      <point x="807" y="912" type="curve"/>
      <point x="948" y="847"/>
      <point x="1034" y="699"/>
    </contour>
    <contour>
      <point x="306" y="499" type="curve" smooth="yes"/>
      <point x="306" y="268"/>
      <point x="392" y="144"/>
      <point x="565" y="144" type="curve" smooth="yes"/>
      <point x="737" y="144"/>
      <point x="823" y="267"/>
      <point x="823" y="499" type="curve" smooth="yes"/>
      <point x="823" y="729"/>
      <point x="738" y="850"/>
      <point x="563" y="850" type="curve" smooth="yes"/>
      <point x="391" y="850"/>
      <point x="306" y="732"/>
    </contour>
  </outline>
</glyph>
<glyph name="v" format="1">
  <advance width="978"/>
  <unicode hex="0076"/>
  <outline>
    <contour>
      <point x="378" y="0" type="line"/>
      <point x="0" y="995" type="line"/>
      <point x="216" y="995" type="line"/>
      <point x="418" y="405" type="line"/>
      <point x="454" y="302"/>
      <point x="478" y="224"/>
      <point x="484" y="183" type="curve"/>
      <point x="490" y="183" type="line"/>
      <point x="496" y="215"/>
      <point x="512" y="272"/>
      <point x="541" y="354" type="curve" smooth="yes"/>
      <point x="567" y="427"/>
      <point x="673" y="750"/>
      <point x="762" y="995" type="curve"/>
      <point x="978" y="995" type="line"/>
      <point x="600" y="0" type="line"/>
    </contour>
  </outline>
</glyph>
<glyph name="x" format="1">
  <advance width="1019"/>
  <unicode hex="0078"/>
  <outline>
    <contour>
      <point x="380" y="509" type="line"/>
      <point x="46" y="995" type="line"/>
      <point x="278" y="995" type="line"/>
      <point x="509" y="642" type="line"/>
      <point x="741" y="995" type="line"/>
      <point x="972" y="995" type="line"/>
      <point x="636" y="509" type="line"/>
      <point x="989" y="0" type="line"/>
      <point x="758" y="0" type="line"/>
      <point x="509" y="376" type="line"/>
      <point x="259" y="0" type="line"/>
      <point x="28" y="0" type="line"/>
    </contour>
  </outline>
</glyph>
<glyph name="z" format="1">
  <advance width="881"/>
  <unicode hex="007A"/>
  <outline>
    <contour>
      <point x="816" y="0" type="line"/>
      <point x="66" y="0" type="line"/>
      <point x="66" y="129" type="line"/>
      <point x="573" y="838" type="line"/>
      <point x="96" y="838" type="line"/>
      <point x="96" y="995" type="line"/>
      <point x="801" y="995" type="line"/>
      <point x="801" y="852" type="line"/>
      <point x="304" y="157" type="line"/>
      <point x="816" y="157" type="line"/>
    </contour>
  </outline>
</glyph>
<glyph name="braceleft.deva" format="1">
  <advance width="562"/>
  <unicode hex="007B"/>
  <outline>
    <contour>
      <point x="407" y="-47" type="line"/>
      <point x="407" y="-170"/>
      <point x="486" y="-214"/>
      <point x="588" y="-216" type="curve"/>
      <point x="588" y="-381" type="line"/>
      <point x="261" y="-375"/>
      <point x="90" y="-195"/>
      <point x="134" y="114" type="curve" smooth="yes"/>
      <point x="177" y="74"/>
      <point x="200" y="526"/>
      <point x="200" y="443" type="curve"/>
      <point x="200" y="679"/>
      <point x="54" y="502"/>
      <point x="-218" y="502" type="curve"/>
      <point x="-218" y="393"/>
      <point x="-156" y="577"/>
      <point x="-34" y="575" type="curve"/>
      <point x="261" y="581"/>
      <point x="383" y="617"/>
      <point x="383" y="834" type="curve" smooth="yes"/>
      <point x="253" y="831"/>
      <point x="200" y="1300"/>
      <point x="200" y="1194" type="curve"/>
      <point x="200" y="1370"/>
      <point x="260" y="1228"/>
      <point x="383" y="1324" type="curve" smooth="yes"/>
      <point x="506" y="1263"/>
      <point x="574" y="1231"/>
      <point x="588" y="1227" type="curve"/>
      <point x="588" y="1063" type="line"/>
      <point x="474" y="1062"/>
      <point x="407" y="1004"/>
      <point x="407" y="897" type="curve" smooth="yes"/>
      <point x="407" y="639" type="line"/>
      <point x="407" y="533"/>
      <point x="324" y="452"/>
      <point x="177" y="429" type="curve"/>
      <point x="177" y="417" type="line"/>
      <point x="325" y="395"/>
      <point x="407" y="313"/>
      <point x="407" y="201" type="curve" smooth="yes"/>
    </contour>
  </outline>
</glyph>
<glyph name="divide.deva" format="1">
  <advance width="1051"/>
  <unicode hex="00F7"/>
  <outline>
    <contour>
      <point x="86" y="572" type="line"/>
      <point x="86" y="728" type="line"/>
      <point x="963" y="728" type="line"/>
      <point x="963" y="572" type="line"/>
    </contour>
    <contour>
      <point x="412" y="326" type="curve" smooth="yes"/>
      <point x="412" y="405"/>
      <point x="452" y="447"/>
      <point x="524" y="447" type="curve" smooth="yes"/>
      <point x="593" y="447"/>
      <point x="635" y="403"/>
      <point x="635" y="326" type="curve" smooth="yes"/>
      <point x="635" y="250"/>
      <point x="591" y="205"/>
      <point x="524" y="205" type="curve" smooth="yes"/>
      <point x="455" y="205"/>
      <point x="412" y="247"/>
    </contour>
    <contour>
      <point x="412" y="974" type="curve" smooth="yes"/>
      <point x="412" y="1053"/>
      <point x="452" y="1095"/>
      <point x="524" y="1095" type="curve" smooth="yes"/>
      <point x="593" y="1095"/>
      <point x="635" y="1051"/>
      <point x="635" y="974" type="curve" smooth="yes"/>
      <point x="635" y="898"/>
      <point x="591" y="853"/>
      <point x="524" y="853" type="curve" smooth="yes"/>
      <point x="455" y="853"/>
      <point x="412" y="897"/>
    </contour>
  </outline>
</glyph>
<glyph name="kadeva" format="1">
  <advance width="1608"/>
  <unicode hex="0915"/>
  <outline>
    <contour>
      <point x="877" y="511" type="curve"/>
      <point x="862" y="770" type="line"/>
      <point x="920" y="808"/>
      <point x="1014" y="844"/>
      <point x="1113" y="844" type="curve" smooth="yes"/>
      <point x="1343" y="844"/>
      <point x="1488" y="702"/>
      <point x="1488" y="505" type="curve" smooth="yes"/>
      <point x="1488" y="381"/>
      <point x="1438" y="263"/>
      <point x="1360" y="160" type="curve"/>
      <point x="1182" y="226" type="line"/>
      <point x="1255" y="325"/>
      <point x="1298" y="424"/>
      <point x="1298" y="516" type="curve" smooth="yes"/>
      <point x="1298" y="611"/>
      <point x="1241" y="671"/>
      <point x="1139" y="671" type="curve" smooth="yes"/>
      <point x="1048" y="671"/>
      <point x="955" y="612"/>
    </contour>
    <contour>
      <point x="-30" y="1136" type="line"/>
      <point x="-30" y="1283" type="line"/>
      <point x="1638" y="1283" type="line"/>
      <point x="1638" y="1136" type="line"/>
    </contour>
    <contour>
      <point x="726" y="576" type="curve"/>
      <point x="726" y="345" type="line"/>
      <point x="651" y="286"/>
      <point x="568" y="255"/>
      <point x="460" y="255" type="curve" smooth="yes"/>
      <point x="239" y="255"/>
      <point x="87" y="420"/>
      <point x="87" y="619" type="curve" smooth="yes"/>
      <point x="87" y="787"/>
      <point x="205" y="922"/>
      <point x="422" y="923" type="curve" smooth="yes"/>
      <point x="547" y="924"/>
      <point x="650" y="893"/>
      <point x="736" y="850" type="curve"/>
      <point x="736" y="683" type="line"/>
      <point x="641" y="737"/>
      <point x="561" y="761"/>
      <point x="467" y="761" type="curve" smooth="yes"/>
      <point x="334" y="761"/>
      <point x="266" y="689"/>
      <point x="266" y="591" type="curve" smooth="yes"/>
      <point x="266" y="489"/>
      <point x="342" y="419"/>
      <point x="449" y="419" type="curve" smooth="yes"/>
      <point x="549" y="419"/>
      <point x="645" y="469"/>
    </contour>
    <contour>
      <point x="706" y="1169" type="line"/>
      <point x="912" y="1169" type="line"/>
      <point x="912" y="0" type="line"/>
      <point x="706" y="0" type="line"/>
    </contour>
    <contour>
      <point x="706" y="0" type="move" name="btm"/>
    </contour>
    <contour>
      <point x="706" y="1283" type="move" name="top"/>
    </contour>
  </outline>
</glyph>
<glyph name="tthadeva" format="1">
  <advance width="1277"/>
  <unicode hex="0920"/>
  <outline>
    <contour>
      <point x="992" y="495" type="curve" smooth="yes"/>
      <point x="992" y="588"/>
      <point x="958" y="660"/>
      <point x="878" y="735" type="curve"/>
      <point x="643" y="735" type="line"/>
      <point x="401" y="735"/>
      <point x="304" y="639"/>
      <point x="304" y="487" type="curve" smooth="yes"/>
      <point x="304" y="337"/>
      <point x="441" y="218"/>
      <point x="640" y="218" type="curve" smooth="yes"/>
      <point x="856" y="218"/>
      <point x="992" y="329"/>
    </contour>
    <contour>
      <point x="1307" y="1136" type="line"/>
      <point x="-30" y="1136" type="line"/>
      <point x="-30" y="1283" type="line"/>
      <point x="1307" y="1283" type="line"/>
    </contour>
    <contour>
      <point x="836" y="1167" type="line"/>
      <point x="1042" y="1167" type="line"/>
      <point x="1042" y="769" type="line"/>
      <point x="994" y="861" type="line"/>
      <point x="1104" y="759"/>
      <point x="1178" y="629"/>
      <point x="1178" y="467" type="curve" smooth="yes"/>
      <point x="1178" y="234"/>
      <point x="984" y="57"/>
      <point x="665" y="57" type="curve" smooth="yes"/>
      <point x="325" y="57"/>
      <point x="106" y="266"/>
      <point x="106" y="515" type="curve" smooth="yes"/>
      <point x="106" y="749"/>
      <point x="280" y="896"/>
      <point x="565" y="896" type="curve" smooth="yes"/>
      <point x="886" y="896" type="line"/>
      <point x="836" y="853" type="line"/>
    </contour>
    <contour>
      <point x="547" y="65" type="move" name="btm"/>
    </contour>
    <contour>
      <point x="786" y="1283" type="move" name="top"/>
    </contour>
  </outline>
</glyph>
<glyph name="ddhadeva" format="1">
  <advance width="1194"/>
  <unicode hex="0922"/>
  <outline>
    <contour>
      <point x="1224" y="1136" type="line"/>
      <point x="-30" y="1136" type="line"/>
      <point x="-30" y="1283" type="line"/>
      <point x="1224" y="1283" type="line"/>
    </contour>
    <contour>
      <point x="743" y="1166" type="line"/>
      <point x="950" y="1166" type="line"/>
      <point x="950" y="741" type="line"/>
      <point x="642" y="741" type="line"/>
      <point x="382" y="741"/>
      <point x="295" y="634"/>
      <point x="295" y="474" type="curve" smooth="yes"/>
      <point x="295" y="318"/>
      <point x="465" y="178"/>
      <point x="698" y="178" type="curve" smooth="yes"/>
      <point x="874" y="178"/>
      <point x="945" y="245"/>
      <point x="945" y="322" type="curve" smooth="yes"/>
      <point x="945" y="377"/>
      <point x="897" y="420"/>
      <point x="817" y="420" type="curve" smooth="yes"/>
      <point x="721" y="420"/>
      <point x="668" y="357"/>
      <point x="668" y="276" type="curve" smooth="yes"/>
      <point x="668" y="223"/>
      <point x="687" y="171"/>
      <point x="718" y="130" type="curve"/>
      <point x="563" y="114" type="line"/>
      <point x="525" y="172"/>
      <point x="505" y="229"/>
      <point x="505" y="298" type="curve" smooth="yes"/>
      <point x="505" y="434"/>
      <point x="604" y="556"/>
      <point x="803" y="556" type="curve" smooth="yes"/>
      <point x="991" y="556"/>
      <point x="1104" y="448"/>
      <point x="1104" y="311" type="curve" smooth="yes"/>
      <point x="1104" y="159"/>
      <point x="972" y="43"/>
      <point x="706" y="43" type="curve" smooth="yes"/>
      <point x="329" y="43"/>
      <point x="106" y="269"/>
      <point x="106" y="516" type="curve" smooth="yes"/>
      <point x="106" y="734"/>
      <point x="258" y="896"/>
      <point x="572" y="896" type="curve" smooth="yes"/>
      <point x="784" y="896" type="line"/>
      <point x="743" y="862" type="line"/>
    </contour>
    <contour>
      <point x="563" y="57" type="move" name="btm"/>
    </contour>
    <contour>
      <point x="732" y="1283" type="move" name="top"/>
    </contour>
  </outline>
</glyph>
<glyph name="yadeva" format="1">
  <advance width="1307"/>
  <unicode hex="092F"/>
  <outline>
    <contour>
      <point x="-30" y="1136" type="line"/>
      <point x="-30" y="1283" type="line"/>
      <point x="1337" y="1283" type="line"/>
      <point x="1337" y="1136" type="line"/>
    </contour>
    <contour>
      <point x="364" y="1165" type="line"/>
      <point x="571" y="1165" type="line"/>
      <point x="571" y="977" type="line"/>
      <point x="571" y="771"/>
      <point x="481" y="637"/>
      <point x="262" y="566" type="curve"/>
      <point x="267" y="658" type="line"/>
      <point x="341" y="535"/>
      <point x="459" y="464"/>
      <point x="590" y="464" type="curve" smooth="yes"/>
      <point x="717" y="464"/>
      <point x="844" y="530"/>
      <point x="925" y="661" type="curve"/>
      <point x="925" y="393" type="line"/>
      <point x="855" y="328"/>
      <point x="754" y="290"/>
      <point x="630" y="290" type="curve" smooth="yes"/>
      <point x="411" y="290"/>
      <point x="194" y="424"/>
      <point x="60" y="662" type="curve"/>
      <point x="60" y="668" type="line"/>
      <point x="300" y="749"/>
      <point x="364" y="839"/>
      <point x="364" y="985" type="curve" smooth="yes"/>
    </contour>
    <contour>
      <point x="876" y="1169" type="line"/>
      <point x="1083" y="1169" type="line"/>
      <point x="1083" y="0" type="line"/>
      <point x="876" y="0" type="line"/>
    </contour>
    <contour>
      <point x="876" y="1283" type="move" name="top"/>
    </contour>
  </outline>
</glyph>
<glyph name="ssadeva" format="1">
  <advance width="1202"/>
  <unicode hex="0937"/>
  <outline>
    <contour>
      <point x="847" y="595" type="line"/>
      <point x="742" y="513" type="line"/>
      <point x="246" y="1117" type="line"/>
      <point x="351" y="1198" type="line"/>
    </contour>
    <contour>
      <point x="1227" y="1136" type="line"/>
      <point x="-30" y="1136" type="line"/>
      <point x="-30" y="1283" type="line"/>
      <point x="1227" y="1283" type="line"/>
    </contour>
    <contour>
      <point x="346" y="1195" type="line"/>
      <point x="346" y="723" type="line"/>
      <point x="346" y="590"/>
      <point x="418" y="529"/>
      <point x="533" y="529" type="curve" smooth="yes"/>
      <point x="628" y="529"/>
      <point x="715" y="559"/>
      <point x="794" y="632" type="curve"/>
      <point x="794" y="404" type="line"/>
      <point x="729" y="376"/>
      <point x="645" y="356"/>
      <point x="561" y="356" type="curve" smooth="yes"/>
      <point x="310" y="356"/>
      <point x="142" y="496"/>
      <point x="142" y="764" type="curve" smooth="yes"/>
      <point x="142" y="1195" type="line"/>
    </contour>
    <contour>
      <point x="765" y="1169" type="line"/>
      <point x="972" y="1169" type="line"/>
      <point x="972" y="0" type="line"/>
      <point x="765" y="0" type="line"/>
    </contour>
    <contour>
      <point x="765" y="1283" type="move" name="top"/>
    </contour>
  </outline>
</glyph>
<glyph name="sadeva" format="1">
  <advance width="1490"/>
  <unicode hex="0938"/>
  <outline>
    <contour>
      <point x="748" y="72" type="line"/>
      <point x="596" y="-30" type="line"/>
      <point x="91" y="655" type="line"/>
      <point x="59" y="698"/>
      <point x="42" y="731"/>
      <point x="42" y="769" type="curve" smooth="yes"/>
      <point x="42" y="816"/>
      <point x="78" y="857"/>
      <point x="134" y="857" type="curve" smooth="yes"/>
      <point x="173" y="857"/>
      <point x="202" y="836"/>
      <point x="228" y="802" type="curve" smooth="yes"/>
      <point x="366" y="612" type="line"/>
      <point x="366" y="591" type="line"/>
    </contour>
    <contour>
      <point x="240" y="647" type="line"/>
      <point x="401" y="690"/>
      <point x="471" y="781"/>
      <point x="471" y="942" type="curve" smooth="yes"/>
      <point x="471" y="1179" type="line"/>
      <point x="677" y="1179" type="line"/>
      <point x="677" y="909" type="line"/>
      <point x="677" y="728"/>
      <point x="593" y="558"/>
      <point x="357" y="481" type="curve"/>
    </contour>
    <contour>
      <point x="-30" y="1136" type="line"/>
      <point x="-30" y="1283" type="line"/>
      <point x="1520" y="1283" type="line"/>
      <point x="1520" y="1136" type="line"/>
    </contour>
    <contour>
      <point x="489" y="572" type="curve"/>
      <point x="563" y="722" type="line"/>
      <point x="662" y="683"/>
      <point x="756" y="666"/>
      <point x="829" y="666" type="curve" smooth="yes"/>
      <point x="919" y="666"/>
      <point x="1008" y="679"/>
      <point x="1082" y="702" type="curve"/>
      <point x="1082" y="520" type="line"/>
      <point x="1029" y="503"/>
      <point x="953" y="489"/>
      <point x="862" y="489" type="curve" smooth="yes"/>
      <point x="739" y="489"/>
      <point x="621" y="514"/>
    </contour>
    <contour>
      <point x="1058" y="1169" type="line"/>
      <point x="1265" y="1169" type="line"/>
      <point x="1265" y="0" type="line"/>
      <point x="1058" y="0" type="line"/>
    </contour>
    <contour>
      <point x="1058" y="1283" type="move" name="top"/>
    </contour>
  </outline>
</glyph>
<glyph name="uvowelsigndeva" format="1">
  <advance width="0"/>
  <unicode hex="0941"/>
  <outline>
    <contour>
      <point x="-648" y="-88" type="line"/>
      <point x="-563" y="-22"/>
      <point x="-463" y="27"/>
      <point x="-330" y="27" type="curve" smooth="yes"/>
      <point x="-135" y="27"/>
      <point x="-6" y="-99"/>
      <point x="-6" y="-279" type="curve" smooth="yes"/>
      <point x="-6" y="-462"/>
      <point x="-151" y="-578"/>
      <point x="-357" y="-578" type="curve" smooth="yes"/>
      <point x="-562" y="-578"/>
      <point x="-750" y="-504"/>
      <point x="-960" y="-349" type="curve"/>
      <point x="-894" y="-203" type="line"/>
      <point x="-686" y="-361"/>
      <point x="-527" y="-419"/>
      <point x="-397" y="-419" type="curve" smooth="yes"/>
      <point x="-257" y="-419"/>
      <point x="-184" y="-356"/>
      <point x="-184" y="-268" type="curve" smooth="yes"/>
      <point x="-184" y="-192"/>
      <point x="-250" y="-134"/>
      <point x="-339" y="-134" type="curve" smooth="yes"/>
      <point x="-414" y="-134"/>
      <point x="-492" y="-169"/>
      <point x="-565" y="-228" type="curve"/>
    </contour>
    <contour>
      <point x="-433" y="0" type="move" name="_btm"/>
    </contour>
  </outline>
</glyph>
<glyph name="ecandravowelsigndeva" format="1">
  <advance width="0"/>
  <unicode hex="0945"/>
  <outline>
    <contour>
      <point x="73" y="1572" type="line"/>
      <point x="-29" y="1457"/>
      <point x="-164" y="1398"/>
      <point x="-323" y="1398" type="curve" smooth="yes"/>
      <point x="-483" y="1398"/>
      <point x="-617" y="1451"/>
      <point x="-741" y="1564" type="curve"/>
      <point x="-689" y="1716" type="line"/>
      <point x="-577" y="1611"/>
      <point x="-460" y="1560"/>
      <point x="-327" y="1560" type="curve" smooth="yes"/>
      <point x="-198" y="1560"/>
      <point x="-88" y="1612"/>
      <point x="11" y="1713" type="curve"/>
    </contour>
    <contour>
      <point x="-434" y="1283" type="move" name="_top"/>
    </contour>
  </outline>
</glyph>
<glyph name="eshortvowelsigndeva" format="1">
  <advance width="0"/>
  <unicode hex="0946"/>
  <outline>
    <contour>
      <point x="-434" y="1244" type="line"/>
      <point x="-434" y="1363" type="line"/>
      <point x="-434" y="1441"/>
      <point x="-472" y="1484"/>
      <point x="-543" y="1484" type="curve" smooth="yes"/>
      <point x="-616" y="1484"/>
      <point x="-686" y="1441"/>
      <point x="-802" y="1441" type="curve" smooth="yes"/>
      <point x="-928" y="1441"/>
      <point x="-1014" y="1495"/>
      <point x="-1097" y="1595" type="curve"/>
      <point x="-1020" y="1722" type="line"/>
      <point x="-932" y="1636"/>
      <point x="-878" y="1609"/>
      <point x="-809" y="1609" type="curve" smooth="yes"/>
      <point x="-714" y="1609"/>
      <point x="-619" y="1663"/>
      <point x="-488" y="1663" type="curve" smooth="yes"/>
      <point x="-342" y="1663"/>
      <point x="-240" y="1558"/>
      <point x="-240" y="1390" type="curve" smooth="yes"/>
      <point x="-240" y="1244" type="line"/>
    </contour>
    <contour>
      <point x="-434" y="1283" type="move" name="_top"/>
    </contour>
  </outline>
</glyph>
<glyph name="prishthaevowelsign" format="1">
  <advance width="618"/>
  <unicode hex="094E"/>
  <outline>
    <contour>
      <point x="186" y="1169" type="line"/>
      <point x="397" y="1169" type="line"/>
      <point x="397" y="0" type="line"/>
      <point x="186" y="0" type="line"/>
    </contour>
    <contour>
      <point x="648" y="1136" type="line"/>
      <point x="186" y="1136" type="line"/>
      <point x="186" y="1283" type="line"/>
      <point x="648" y="1283" type="line"/>
    </contour>
  </outline>
</glyph>
<glyph name="candralongevowelsigndeva" format="1">
  <advance width="0"/>
  <unicode hex="0955"/>
  <outline>
    <component base="ecandravowelsigndeva" yScale="0.887804300233" xOffset="-289" yOffset="357"/>
    <component base="anudattadeva" xOffset="-20" yOffset="1662"/>
    <contour>
      <point x="-434" y="1283" type="move" name="_top"/>
    </contour>
  </outline>
</glyph>
<glyph name="uuevowelsigndevaKSH" format="1">
  <advance width="0"/>
  <unicode hex="0957"/>
  <outline>
    <component base="uevowelsigndevaKSH" yScale="0.911255252337" yOffset="-7"/>
    <component base="uevowelsigndevaKSH" xScale="1.05291688552" yScale="0.880834301489" xOffset="21" yOffset="-292"/>
    <contour>
      <point x="-433" y="0" type="move" name="_btm"/>
    </contour>
  </outline>
</glyph>
<glyph name="uni097D" format="1">
  <advance width="1073"/>
  <unicode hex="097D"/>
  <outline>
    <contour>
      <point x="561" y="577" type="line"/>
      <point x="561" y="1" type="line"/>
      <point x="350" y="1" type="line"/>
      <point x="350" y="686" type="line"/>
      <point x="362" y="686" type="line"/>
      <point x="603" y="695"/>
      <point x="741" y="815"/>
      <point x="741" y="947" type="curve" smooth="yes"/>
      <point x="741" y="1047"/>
      <point x="662" y="1124"/>
      <point x="519" y="1124" type="curve" smooth="yes"/>
      <point x="433" y="1124"/>
      <point x="342" y="1097"/>
      <point x="244" y="1048" type="curve"/>
      <point x="191" y="1213" type="line"/>
      <point x="291" y="1260"/>
      <point x="402" y="1290"/>
      <point x="523" y="1290" type="curve" smooth="yes"/>
      <point x="780" y="1290"/>
      <point x="929" y="1140"/>
      <point x="929" y="926" type="curve" smooth="yes"/>
      <point x="929" y="703"/>
      <point x="713" y="556"/>
      <point x="521" y="543" type="curve"/>
    </contour>
  </outline>
</glyph>
<glyph name="endash.deva" format="1">
  <advance width="953"/>
  <unicode hex="2013"/>
  <outline>
    <contour>
      <point x="81" y="412" type="line"/>
      <point x="81" y="578" type="line"/>
      <point x="859" y="578" type="line"/>
      <point x="859" y="412" type="line"/>
    </contour>
  </outline>
</glyph>
<glyph name="quoteleft.deva" format="1">
  <advance width="441"/>
  <unicode hex="2018"/>
  <outline>
    <contour>
      <point x="0" y="0" type="line"/>
      <point x="441" y="0" type="line"/>
      <point x="441" y="20" type="line"/>
      <point x="0" y="20" type="line"/>
    </contour>
  </outline>
</glyph>
<glyph name="quoteright.deva" format="1">
  <advance width="16"/>
  <unicode hex="2019"/>
  <outline>
    <contour>
      <point x="152" y="1316" type="line"/>
      <point x="169" y="1294" type="line"/>
      <point x="178" y="1322"/>
      <point x="181" y="1319"/>
      <point x="179" y="1282" type="curve" smooth="yes"/>
      <point x="124" y="1133"/>
      <point x="118" y="993"/>
      <point x="57" y="865" type="curve"/>
      <point x="42" y="814"/>
      <point x="-182" y="750"/>
      <point x="-199" y="672" type="curve"/>
      <point x="-137" y="918"/>
      <point x="-92" y="1132"/>
      <point x="-65" y="1316" type="curve"/>
    </contour>
  </outline>
</glyph>
<glyph name="minus.deva" format="1">
  <advance width="1051"/>
  <unicode hex="2212"/>
  <outline>
    <contour>
      <point x="86" y="572" type="line"/>
      <point x="86" y="728" type="line"/>
      <point x="963" y="728" type="line"/>
      <point x="963" y="572" type="line"/>
    </contour>
  </outline>
</glyph>
<glyph name="candrabindusmalldeva" format="1">
  <advance width="0"/>
  <outline>
    <contour>
      <point x="-333" y="1854" type="curve" smooth="yes"/>
      <point x="-265" y="1854"/>
      <point x="-233" y="1809"/>
      <point x="-233" y="1755" type="curve" smooth="yes"/>
      <point x="-233" y="1703"/>
      <point x="-265" y="1656"/>
      <point x="-333" y="1656" type="curve" smooth="yes"/>
      <point x="-397" y="1656"/>
      <point x="-431" y="1701"/>
      <point x="-431" y="1755" type="curve" smooth="yes"/>
      <point x="-431" y="1809"/>
      <point x="-397" y="1854"/>
    </contour>
    <contour>
      <point x="10" y="1577" type="line"/>
      <point x="-80" y="1457"/>
      <point x="-193" y="1400"/>
      <point x="-318" y="1400" type="curve" smooth="yes"/>
      <point x="-443" y="1400"/>
      <point x="-554" y="1455"/>
      <point x="-660" y="1575" type="curve"/>
      <point x="-585" y="1706" type="line"/>
      <point x="-492" y="1598"/>
      <point x="-415" y="1559"/>
      <point x="-324" y="1559" type="curve" smooth="yes"/>
      <point x="-230" y="1559"/>
      <point x="-150" y="1601"/>
      <point x="-74" y="1701" type="curve"/>
    </contour>
    <contour>
      <point x="-434" y="1283" type="move" name="_top"/>
    </contour>
  </outline>
</glyph>
<glyph name="chaprehalfdeva" format="1">
  <advance width="1513"/>
  <outline>
    <contour>
      <point x="544" y="747" type="curve"/>
      <point x="395" y="631" type="line"/>
      <point x="187" y="697"/>
      <point x="103" y="816"/>
      <point x="103" y="967" type="curve" smooth="yes"/>
      <point x="103" y="1095"/>
      <point x="213" y="1240"/>
      <point x="455" y="1265" type="curve"/>
      <point x="547" y="1156" type="line"/>
      <point x="376" y="1133"/>
      <point x="309" y="1025"/>
      <point x="309" y="944" type="curve" smooth="yes"/>
      <point x="309" y="851"/>
      <point x="378" y="773"/>
    </contour>
    <contour>
      <point x="1543" y="1136" type="line"/>
      <point x="-30" y="1136" type="line"/>
      <point x="-30" y="1283" type="line"/>
      <point x="1543" y="1283" type="line"/>
    </contour>
    <contour>
      <point x="651" y="783" type="curve"/>
      <point x="704" y="618" type="line"/>
      <point x="702" y="618"/>
      <point x="700" y="618"/>
      <point x="698" y="618" type="curve" smooth="yes"/>
      <point x="481" y="611"/>
      <point x="414" y="510"/>
      <point x="414" y="409" type="curve" smooth="yes"/>
      <point x="414" y="297"/>
      <point x="512" y="209"/>
      <point x="689" y="209" type="curve" smooth="yes"/>
      <point x="981" y="209"/>
      <point x="1243" y="444"/>
      <point x="1243" y="670" type="curve" smooth="yes"/>
      <point x="1243" y="774"/>
      <point x="1183" y="830"/>
      <point x="1108" y="830" type="curve" smooth="yes"/>
      <point x="1038" y="830"/>
      <point x="985" y="776"/>
      <point x="985" y="698" type="curve" smooth="yes"/>
      <point x="985" y="598"/>
      <point x="1057" y="501"/>
      <point x="1245" y="386" type="curve"/>
      <point x="1139" y="273" type="line"/>
      <point x="911" y="411"/>
      <point x="808" y="568"/>
      <point x="808" y="724" type="curve" smooth="yes"/>
      <point x="808" y="869"/>
      <point x="920" y="990"/>
      <point x="1097" y="990" type="curve" smooth="yes"/>
      <point x="1284" y="990"/>
      <point x="1416" y="869"/>
      <point x="1416" y="653" type="curve" smooth="yes"/>
      <point x="1416" y="375"/>
      <point x="1112" y="37"/>
      <point x="696" y="37" type="curve" smooth="yes"/>
      <point x="366" y="37"/>
      <point x="206" y="227"/>
      <point x="206" y="436" type="curve" smooth="yes"/>
      <point x="206" y="613"/>
      <point x="345" y="777"/>
      <point x="646" y="783" type="curve" smooth="yes"/>
      <point x="648" y="783"/>
      <point x="649" y="783"/>
    </contour>
  </outline>
</glyph>
<glyph name="ddhaddhadeva" format="1">
  <advance width="1178"/>
  <outline>
    <contour>
      <point x="671" y="263" type="line"/>
      <point x="875" y="263" type="line"/>
      <point x="875" y="-45" type="line"/>
      <point x="596" y="-45" type="line"/>
      <point x="359" y="-45"/>
      <point x="290" y="-131"/>
      <point x="290" y="-239" type="curve" smooth="yes"/>
      <point x="290" y="-361"/>
      <point x="430" y="-457"/>
      <point x="659" y="-457" type="curve" smooth="yes"/>
      <point x="843" y="-457"/>
      <point x="905" y="-407"/>
      <point x="905" y="-354" type="curve" smooth="yes"/>
      <point x="905" y="-309"/>
      <point x="866" y="-273"/>
      <point x="784" y="-273" type="curve" smooth="yes"/>
      <point x="694" y="-273"/>
      <point x="634" y="-330"/>
      <point x="634" y="-393" type="curve" smooth="yes"/>
      <point x="634" y="-443"/>
      <point x="651" y="-482"/>
      <point x="683" y="-519" type="curve"/>
      <point x="525" y="-533" type="line"/>
      <point x="493" y="-480"/>
      <point x="477" y="-433"/>
      <point x="477" y="-366" type="curve" smooth="yes"/>
      <point x="477" y="-266"/>
      <point x="572" y="-152"/>
      <point x="776" y="-152" type="curve" smooth="yes"/>
      <point x="974" y="-152"/>
      <point x="1056" y="-250"/>
      <point x="1056" y="-358" type="curve" smooth="yes"/>
      <point x="1056" y="-475"/>
      <point x="924" y="-583"/>
      <point x="669" y="-583" type="curve" smooth="yes"/>
      <point x="302" y="-583"/>
      <point x="104" y="-409"/>
      <point x="104" y="-208" type="curve" smooth="yes"/>
      <point x="104" y="-49"/>
      <point x="224" y="101"/>
      <point x="540" y="101" type="curve" smooth="yes"/>
      <point x="712" y="101" type="line"/>
      <point x="671" y="61" type="line"/>
    </contour>
    <contour>
      <point x="1208" y="1136" type="line"/>
      <point x="-30" y="1136" type="line"/>
      <point x="-30" y="1283" type="line"/>
      <point x="1208" y="1283" type="line"/>
    </contour>
    <contour>
      <point x="728" y="1166" type="line"/>
      <point x="934" y="1166" type="line"/>
      <point x="934" y="815" type="line"/>
      <point x="629" y="815" type="line"/>
      <point x="384" y="815"/>
      <point x="295" y="719"/>
      <point x="295" y="592" type="curve" smooth="yes"/>
      <point x="295" y="454"/>
      <point x="449" y="347"/>
      <point x="678" y="347" type="curve" smooth="yes"/>
      <point x="860" y="347"/>
      <point x="939" y="401"/>
      <point x="939" y="462" type="curve" smooth="yes"/>
      <point x="939" y="514"/>
      <point x="892" y="548"/>
      <point x="811" y="548" type="curve" smooth="yes"/>
      <point x="721" y="548"/>
      <point x="663" y="498"/>
      <point x="663" y="424" type="curve" smooth="yes"/>
      <point x="663" y="375"/>
      <point x="683" y="335"/>
      <point x="710" y="297" type="curve"/>
      <point x="554" y="280" type="line"/>
      <point x="515" y="333"/>
      <point x="499" y="386"/>
      <point x="499" y="450" type="curve" smooth="yes"/>
      <point x="499" y="576"/>
      <point x="606" y="682"/>
      <point x="804" y="682" type="curve" smooth="yes"/>
      <point x="1000" y="682"/>
      <point x="1107" y="581"/>
      <point x="1107" y="454" type="curve" smooth="yes"/>
      <point x="1107" y="321"/>
      <point x="952" y="216"/>
      <point x="690" y="216" type="curve" smooth="yes"/>
      <point x="305" y="216"/>
      <point x="99" y="407"/>
      <point x="99" y="631" type="curve" smooth="yes"/>
      <point x="99" y="810"/>
      <point x="244" y="967"/>
      <point x="559" y="967" type="curve" smooth="yes"/>
      <point x="769" y="967" type="line"/>
      <point x="728" y="933" type="line"/>
    </contour>
    <contour>
      <point x="515" y="-576" type="move" name="btm"/>
    </contour>
    <contour>
      <point x="709" y="1283" type="move" name="top"/>
    </contour>
  </outline>
</glyph>
<glyph name="garaprehalfdeva" format="1">
  <advance width="717"/>
  <outline>
    <contour>
      <point x="747" y="1136" type="line"/>
      <point x="-30" y="1136" type="line"/>
      <point x="-30" y="1283" type="line"/>
      <point x="747" y="1283" type="line"/>
    </contour>
    <contour>
      <point x="1045" y="418" type="line"/>
      <point x="468" y="-51" type="line"/>
      <point x="359" y="87" type="line"/>
      <point x="936" y="557" type="line"/>
    </contour>
    <contour>
      <point x="505" y="1171" type="line"/>
      <point x="505" y="473" type="line"/>
      <point x="505" y="410"/>
      <point x="482" y="377"/>
      <point x="422" y="377" type="curve" smooth="yes"/>
      <point x="303" y="377"/>
      <point x="122" y="562"/>
      <point x="122" y="645" type="curve" smooth="yes"/>
      <point x="122" y="685"/>
      <point x="146" y="715"/>
      <point x="206" y="715" type="curve" smooth="yes"/>
      <point x="334" y="715" type="line"/>
      <point x="298" y="680" type="line"/>
      <point x="298" y="1171" type="line"/>
    </contour>
  </outline>
</glyph>
<glyph name="hayadeva" format="1">
  <advance width="1825"/>
  <outline>
    <contour>
      <point x="365" y="182" type="curve" smooth="yes"/>
      <point x="365" y="21"/>
      <point x="469" y="-118"/>
      <point x="707" y="-283" type="curve"/>
      <point x="585" y="-391" type="line"/>
      <point x="326" y="-211"/>
      <point x="184" y="-19"/>
      <point x="184" y="213" type="curve" smooth="yes"/>
      <point x="184" y="421"/>
      <point x="339" y="602"/>
      <point x="663" y="602" type="curve" smooth="yes"/>
      <point x="945" y="602"/>
      <point x="1099" y="464"/>
      <point x="1099" y="317" type="curve" smooth="yes"/>
      <point x="1099" y="191"/>
      <point x="1000" y="113"/>
      <point x="800" y="50" type="curve"/>
      <point x="807" y="131" type="line"/>
      <point x="876" y="10"/>
      <point x="987" y="-54"/>
      <point x="1107" y="-54" type="curve" smooth="yes"/>
      <point x="1244" y="-54"/>
      <point x="1368" y="17"/>
      <point x="1448" y="144" type="curve"/>
      <point x="1448" y="-126" type="line"/>
      <point x="1375" y="-189"/>
      <point x="1292" y="-226"/>
      <point x="1159" y="-226" type="curve" smooth="yes"/>
      <point x="930" y="-226"/>
      <point x="725" y="-87"/>
      <point x="609" y="145" type="curve"/>
      <point x="609" y="151" type="line"/>
      <point x="826" y="199"/>
      <point x="911" y="242"/>
      <point x="911" y="315" type="curve" smooth="yes"/>
      <point x="911" y="382"/>
      <point x="836" y="444"/>
      <point x="673" y="444" type="curve" smooth="yes"/>
      <point x="473" y="444"/>
      <point x="365" y="332"/>
    </contour>
    <contour>
      <point x="1855" y="1136" type="line"/>
      <point x="-30" y="1136" type="line"/>
      <point x="-30" y="1283" type="line"/>
      <point x="1855" y="1283" type="line"/>
    </contour>
    <contour>
      <point x="831" y="1162" type="line"/>
      <point x="1038" y="1162" type="line"/>
      <point x="1038" y="794" type="line"/>
      <point x="451" y="794" type="line"/>
      <point x="333" y="794"/>
      <point x="289" y="746"/>
      <point x="289" y="680" type="curve" smooth="yes"/>
      <point x="289" y="612"/>
      <point x="348" y="561"/>
      <point x="445" y="532" type="curve"/>
      <point x="319" y="409" type="line"/>
      <point x="168" y="489"/>
      <point x="92" y="587"/>
      <point x="92" y="714" type="curve" smooth="yes"/>
      <point x="92" y="842"/>
      <point x="185" y="943"/>
      <point x="396" y="943" type="curve" smooth="yes"/>
      <point x="870" y="943" type="line"/>
      <point x="831" y="899" type="line"/>
    </contour>
    <contour>
      <point x="1399" y="1158" type="line"/>
      <point x="1610" y="1158" type="line"/>
      <point x="1610" y="-402" type="line"/>
      <point x="1399" y="-402" type="line"/>
    </contour>
    <contour>
      <point x="1399" y="-402" type="move" name="btm"/>
    </contour>
    <contour>
      <point x="1399" y="1283" type="move" name="top"/>
    </contour>
  </outline>
</glyph>
<glyph name="jaradeva" format="1">
  <advance width="1621"/>
  <outline>
    <contour>
      <point x="1329" y="399" type="line"/>
      <point x="652" y="-175" type="line"/>
      <point x="532" y="-53" type="line"/>
      <point x="1225" y="533" type="line"/>
    </contour>
    <contour>
      <point x="-30" y="1136" type="line"/>
      <point x="-30" y="1283" type="line"/>
      <point x="1651" y="1283" type="line"/>
      <point x="1651" y="1136" type="line"/>
    </contour>
    <contour>
      <point x="704" y="723" type="line"/>
      <point x="720" y="783" type="line"/>
      <point x="859" y="710"/>
      <point x="940" y="598"/>
      <point x="940" y="447" type="curve" smooth="yes"/>
      <point x="940" y="289"/>
      <point x="815" y="146"/>
      <point x="619" y="146" type="curve" smooth="yes"/>
      <point x="412" y="146"/>
      <point x="232" y="267"/>
      <point x="68" y="533" type="curve"/>
      <point x="168" y="673" type="line"/>
      <point x="336" y="408"/>
      <point x="465" y="326"/>
      <point x="589" y="326" type="curve" smooth="yes"/>
      <point x="691" y="326"/>
      <point x="757" y="391"/>
      <point x="757" y="483" type="curve" smooth="yes"/>
      <point x="757" y="583"/>
      <point x="656" y="695"/>
      <point x="478" y="745" type="curve"/>
      <point x="478" y="896" type="line"/>
      <point x="1223" y="896" type="line"/>
      <point x="1223" y="723" type="line"/>
    </contour>
    <contour>
      <point x="1189" y="1169" type="line"/>
      <point x="1396" y="1169" type="line"/>
      <point x="1396" y="0" type="line"/>
      <point x="1189" y="0" type="line"/>
    </contour>
    <contour>
      <point x="1189" y="1283" type="move" name="top"/>
    </contour>
  </outline>
</glyph>
<glyph name="jaraprehalfdeva" format="1">
  <advance width="1097"/>
  <outline>
    <contour>
      <point x="687" y="686" type="line"/>
      <point x="703" y="745" type="line"/>
      <point x="849" y="674"/>
      <point x="934" y="554"/>
      <point x="934" y="405" type="curve" smooth="yes"/>
      <point x="934" y="247"/>
      <point x="809" y="104"/>
      <point x="612" y="104" type="curve" smooth="yes"/>
      <point x="405" y="104"/>
      <point x="219" y="225"/>
      <point x="55" y="491" type="curve"/>
      <point x="155" y="630" type="line"/>
      <point x="323" y="366"/>
      <point x="458" y="284"/>
      <point x="583" y="284" type="curve" smooth="yes"/>
      <point x="685" y="284"/>
      <point x="750" y="349"/>
      <point x="750" y="441" type="curve" smooth="yes"/>
      <point x="750" y="549"/>
      <point x="649" y="660"/>
      <point x="461" y="708" type="curve"/>
      <point x="461" y="859" type="line"/>
      <point x="1353" y="859" type="line"/>
      <point x="1327" y="686" type="line"/>
    </contour>
    <contour>
      <point x="1387" y="383" type="line"/>
      <point x="697" y="-203" type="line"/>
      <point x="576" y="-81" type="line"/>
      <point x="1301" y="535" type="line"/>
    </contour>
    <contour>
      <point x="-30" y="1136" type="line"/>
      <point x="-30" y="1283" type="line"/>
      <point x="1127" y="1283" type="line"/>
      <point x="1127" y="1136" type="line"/>
    </contour>
  </outline>
</glyph>
<glyph name="jathadeva" format="1">
  <advance width="2278"/>
  <outline>
    <contour>
      <point x="-30" y="1136" type="line"/>
      <point x="-30" y="1283" type="line"/>
      <point x="1090" y="1283" type="line"/>
      <point x="1090" y="1136" type="line"/>
    </contour>
    <contour>
      <point x="675" y="586" type="line"/>
      <point x="691" y="645" type="line"/>
      <point x="835" y="570"/>
      <point x="922" y="460"/>
      <point x="922" y="303" type="curve" smooth="yes"/>
      <point x="922" y="140"/>
      <point x="799" y="2"/>
      <point x="601" y="2" type="curve" smooth="yes"/>
      <point x="394" y="2"/>
      <point x="202" y="127"/>
      <point x="38" y="392" type="curve"/>
      <point x="140" y="534" type="line"/>
      <point x="311" y="267"/>
      <point x="448" y="183"/>
      <point x="571" y="183" type="curve" smooth="yes"/>
      <point x="672" y="183"/>
      <point x="738" y="247"/>
      <point x="738" y="340" type="curve" smooth="yes"/>
      <point x="738" y="442"/>
      <point x="637" y="558"/>
      <point x="449" y="608" type="curve"/>
      <point x="449" y="759" type="line"/>
      <point x="1288" y="759" type="line"/>
      <point x="1275" y="586" type="line"/>
    </contour>
    <component base="thadeva" xOffset="903"/>
  </outline>
</glyph>
<glyph name="jhaprehalfdeva" format="1">
  <advance width="1092"/>
  <outline>
    <contour>
      <point x="510" y="148" type="curve"/>
      <point x="522" y="127" type="line"/>
      <point x="788" y="-159" type="line"/>
      <point x="656" y="-250" type="line"/>
      <point x="338" y="98" type="line"/>
      <point x="433" y="32" type="line"/>
      <point x="208" y="32"/>
      <point x="120" y="110"/>
      <point x="120" y="184" type="curve" smooth="yes"/>
      <point x="120" y="248"/>
      <point x="174" y="305"/>
      <point x="252" y="305" type="curve" smooth="yes"/>
      <point x="325" y="305"/>
      <point x="403" y="265"/>
    </contour>
    <contour>
      <point x="1396" y="443" type="line"/>
      <point x="1290" y="374"/>
      <point x="1171" y="339"/>
      <point x="1048" y="339" type="curve" smooth="yes"/>
      <point x="955" y="339"/>
      <point x="867" y="352"/>
      <point x="806" y="366" type="curve"/>
      <point x="803" y="527" type="line"/>
      <point x="865" y="512"/>
      <point x="926" y="504"/>
      <point x="998" y="504" type="curve" smooth="yes"/>
      <point x="1104" y="504"/>
      <point x="1231" y="542"/>
      <point x="1325" y="614" type="curve"/>
    </contour>
    <contour>
      <point x="643" y="1167" type="line"/>
      <point x="849" y="1167" type="line"/>
      <point x="849" y="801" type="line"/>
      <point x="439" y="801" type="line"/>
      <point x="325" y="801"/>
      <point x="284" y="752"/>
      <point x="284" y="692" type="curve" smooth="yes"/>
      <point x="284" y="638"/>
      <point x="322" y="591"/>
      <point x="410" y="556" type="curve"/>
      <point x="324" y="560" type="line"/>
      <point x="416" y="602"/>
      <point x="511" y="630"/>
      <point x="621" y="630" type="curve" smooth="yes"/>
      <point x="815" y="630"/>
      <point x="946" y="519"/>
      <point x="946" y="360" type="curve" smooth="yes"/>
      <point x="946" y="178"/>
      <point x="780" y="38"/>
      <point x="458" y="38" type="curve"/>
      <point x="422" y="190" type="line"/>
      <point x="663" y="190"/>
      <point x="761" y="272"/>
      <point x="761" y="358" type="curve" smooth="yes"/>
      <point x="761" y="426"/>
      <point x="708" y="471"/>
      <point x="604" y="471" type="curve" smooth="yes"/>
      <point x="535" y="471"/>
      <point x="448" y="442"/>
      <point x="375" y="404" type="curve"/>
      <point x="368" y="404" type="line"/>
      <point x="175" y="495"/>
      <point x="100" y="606"/>
      <point x="100" y="723" type="curve" smooth="yes"/>
      <point x="100" y="843"/>
      <point x="192" y="949"/>
      <point x="404" y="949" type="curve" smooth="yes"/>
      <point x="695" y="949" type="line"/>
      <point x="643" y="897" type="line"/>
    </contour>
    <contour>
      <point x="1122" y="1136" type="line"/>
      <point x="-30" y="1136" type="line"/>
      <point x="-30" y="1283" type="line"/>
      <point x="1122" y="1283" type="line"/>
    </contour>
  </outline>
</glyph>
<glyph name="kassaradeva" format="1">
  <advance width="1651"/>
  <outline>
    <contour>
      <point x="496" y="149" type="line"/>
      <point x="646" y="205" type="line"/>
      <point x="786" y="-100" type="line"/>
      <point x="627" y="-154" type="line"/>
    </contour>
    <contour>
      <point x="566" y="636" type="curve" smooth="yes"/>
      <point x="332" y="521"/>
      <point x="276" y="451"/>
      <point x="276" y="361" type="curve" smooth="yes"/>
      <point x="276" y="274"/>
      <point x="334" y="213"/>
      <point x="433" y="213" type="curve" smooth="yes"/>
      <point x="483" y="213"/>
      <point x="515" y="223"/>
      <point x="586" y="253" type="curve"/>
      <point x="482" y="177" type="line"/>
      <point x="458" y="221"/>
      <point x="450" y="247"/>
      <point x="450" y="285" type="curve" smooth="yes"/>
      <point x="450" y="326"/>
      <point x="494" y="367"/>
      <point x="570" y="367" type="curve" smooth="yes"/>
      <point x="686" y="367"/>
      <point x="782" y="312"/>
      <point x="782" y="241" type="curve" smooth="yes"/>
      <point x="782" y="163"/>
      <point x="661" y="62"/>
      <point x="447" y="62" type="curve" smooth="yes"/>
      <point x="242" y="62"/>
      <point x="86" y="188"/>
      <point x="86" y="369" type="curve" smooth="yes"/>
      <point x="86" y="521"/>
      <point x="188" y="636"/>
      <point x="436" y="753" type="curve" smooth="yes"/>
      <point x="654" y="859"/>
      <point x="726" y="940"/>
      <point x="726" y="1027" type="curve" smooth="yes"/>
      <point x="726" y="1098"/>
      <point x="669" y="1152"/>
      <point x="590" y="1152" type="curve" smooth="yes"/>
      <point x="503" y="1152"/>
      <point x="451" y="1099"/>
      <point x="451" y="1018" type="curve" smooth="yes"/>
      <point x="451" y="878"/>
      <point x="694" y="721"/>
      <point x="1293" y="721" type="curve"/>
      <point x="1280" y="552" type="line"/>
      <point x="573" y="554"/>
      <point x="268" y="787"/>
      <point x="268" y="1050" type="curve" smooth="yes"/>
      <point x="268" y="1196"/>
      <point x="378" y="1313"/>
      <point x="571" y="1313" type="curve" smooth="yes"/>
      <point x="786" y="1313"/>
      <point x="898" y="1178"/>
      <point x="898" y="1028" type="curve" smooth="yes"/>
      <point x="898" y="878"/>
      <point x="789" y="746"/>
    </contour>
    <contour>
      <point x="1305" y="566" type="line"/>
      <point x="950" y="100" type="line"/>
      <point x="804" y="203" type="line"/>
      <point x="1166" y="660" type="line"/>
    </contour>
    <contour>
      <point x="1214" y="1169" type="line"/>
      <point x="1425" y="1169" type="line"/>
      <point x="1425" y="0" type="line"/>
      <point x="1214" y="0" type="line"/>
    </contour>
    <contour>
      <point x="1681" y="1136" type="line"/>
      <point x="1048" y="1136" type="line"/>
      <point x="1048" y="1283" type="line"/>
      <point x="1681" y="1283" type="line"/>
    </contour>
    <contour>
      <point x="1214" y="1283" type="move" name="top"/>
    </contour>
  </outline>
</glyph>
<glyph name="katadeva" format="1">
  <advance width="1826"/>
  <outline>
    <contour>
      <point x="966" y="1136" type="line"/>
      <point x="966" y="1283" type="line"/>
      <point x="1856" y="1283" type="line"/>
      <point x="1856" y="1136" type="line"/>
    </contour>
    <contour>
      <point x="1095" y="511" type="curve"/>
      <point x="1080" y="770" type="line"/>
      <point x="1138" y="808"/>
      <point x="1232" y="844"/>
      <point x="1331" y="844" type="curve" smooth="yes"/>
      <point x="1562" y="844"/>
      <point x="1706" y="702"/>
      <point x="1706" y="505" type="curve" smooth="yes"/>
      <point x="1706" y="381"/>
      <point x="1656" y="263"/>
      <point x="1578" y="160" type="curve"/>
      <point x="1400" y="226" type="line"/>
      <point x="1473" y="325"/>
      <point x="1516" y="424"/>
      <point x="1516" y="516" type="curve" smooth="yes"/>
      <point x="1516" y="611"/>
      <point x="1459" y="671"/>
      <point x="1357" y="671" type="curve" smooth="yes"/>
      <point x="1266" y="671"/>
      <point x="1173" y="612"/>
    </contour>
    <component base="tatadeva"/>
    <contour>
      <point x="922" y="0" type="move" name="btm"/>
    </contour>
    <contour>
      <point x="922" y="1283" type="move" name="top"/>
    </contour>
  </outline>
</glyph>
<glyph name="kharadeva" format="1">
  <advance width="1719"/>
  <outline>
    <contour>
      <point x="1398" y="332" type="line"/>
      <point x="627" y="-156" type="line"/>
      <point x="515" y="-17" type="line"/>
      <point x="1289" y="475" type="line"/>
    </contour>
    <contour>
      <point x="1334" y="747" type="line"/>
      <point x="1260" y="793"/>
      <point x="1173" y="816"/>
      <point x="1087" y="816" type="curve" smooth="yes"/>
      <point x="974" y="816"/>
      <point x="912" y="747"/>
      <point x="912" y="674" type="curve" smooth="yes"/>
      <point x="912" y="593"/>
      <point x="976" y="532"/>
      <point x="1068" y="532" type="curve" smooth="yes"/>
      <point x="1162" y="532"/>
      <point x="1250" y="583"/>
      <point x="1322" y="671" type="curve"/>
      <point x="1322" y="449" type="line"/>
      <point x="1257" y="403"/>
      <point x="1176" y="379"/>
      <point x="1085" y="379" type="curve" smooth="yes"/>
      <point x="882" y="379"/>
      <point x="741" y="521"/>
      <point x="741" y="696" type="curve" smooth="yes"/>
      <point x="741" y="844"/>
      <point x="852" y="964"/>
      <point x="1049" y="964" type="curve" smooth="yes"/>
      <point x="1163" y="964"/>
      <point x="1253" y="942"/>
      <point x="1334" y="900" type="curve"/>
    </contour>
    <contour>
      <point x="233" y="675" type="line"/>
      <point x="404" y="732"/>
      <point x="448" y="818"/>
      <point x="448" y="971" type="curve" smooth="yes"/>
      <point x="448" y="1192" type="line"/>
      <point x="655" y="1192" type="line"/>
      <point x="655" y="956" type="line"/>
      <point x="655" y="766"/>
      <point x="606" y="600"/>
      <point x="352" y="493" type="curve"/>
    </contour>
    <contour>
      <point x="-30" y="1136" type="line"/>
      <point x="-30" y="1283" type="line"/>
      <point x="1749" y="1283" type="line"/>
      <point x="1749" y="1136" type="line"/>
    </contour>
    <contour>
      <point x="1287" y="1169" type="line"/>
      <point x="1493" y="1169" type="line"/>
      <point x="1493" y="0" type="line"/>
      <point x="1287" y="0" type="line"/>
    </contour>
    <contour>
      <point x="307" y="619" type="line"/>
      <point x="351" y="542"/>
      <point x="388" y="496"/>
      <point x="452" y="432" type="curve" smooth="yes"/>
      <point x="592" y="291"/>
      <point x="804" y="212"/>
      <point x="1043" y="212" type="curve"/>
      <point x="958" y="63" type="line"/>
      <point x="728" y="63"/>
      <point x="466" y="171"/>
      <point x="301" y="336" type="curve" smooth="yes"/>
      <point x="210" y="427"/>
      <point x="131" y="542"/>
      <point x="83" y="641" type="curve" smooth="yes"/>
      <point x="64" y="677"/>
      <point x="53" y="711"/>
      <point x="53" y="736" type="curve" smooth="yes"/>
      <point x="53" y="788"/>
      <point x="93" y="827"/>
      <point x="144" y="827" type="curve" smooth="yes"/>
      <point x="193" y="827"/>
      <point x="223" y="804"/>
      <point x="265" y="747" type="curve" smooth="yes"/>
      <point x="325" y="648" type="line"/>
    </contour>
    <contour>
      <point x="1287" y="1283" type="move" name="top"/>
    </contour>
  </outline>
</glyph>
<glyph name="kharaprehalfdeva" format="1">
  <advance width="1270"/>
  <outline>
    <contour>
      <point x="233" y="675" type="line"/>
      <point x="404" y="732"/>
      <point x="448" y="818"/>
      <point x="448" y="971" type="curve" smooth="yes"/>
      <point x="448" y="1192" type="line"/>
      <point x="655" y="1192" type="line"/>
      <point x="655" y="956" type="line"/>
      <point x="655" y="766"/>
      <point x="606" y="600"/>
      <point x="352" y="493" type="curve"/>
    </contour>
    <contour>
      <point x="1424" y="663" type="curve" smooth="yes"/>
      <point x="1424" y="511"/>
      <point x="1276" y="380"/>
      <point x="1088" y="380" type="curve" smooth="yes"/>
      <point x="890" y="380"/>
      <point x="741" y="523"/>
      <point x="741" y="699" type="curve" smooth="yes"/>
      <point x="741" y="841"/>
      <point x="844" y="960"/>
      <point x="1040" y="960" type="curve" smooth="yes"/>
      <point x="1284" y="960"/>
      <point x="1424" y="824"/>
    </contour>
    <contour>
      <point x="307" y="619" type="line"/>
      <point x="351" y="542"/>
      <point x="390" y="493"/>
      <point x="446" y="438" type="curve" smooth="yes"/>
      <point x="600" y="284"/>
      <point x="810" y="213"/>
      <point x="1043" y="212" type="curve"/>
      <point x="958" y="63" type="line"/>
      <point x="728" y="63"/>
      <point x="466" y="171"/>
      <point x="301" y="336" type="curve" smooth="yes"/>
      <point x="210" y="427"/>
      <point x="131" y="542"/>
      <point x="83" y="641" type="curve" smooth="yes"/>
      <point x="64" y="677"/>
      <point x="53" y="711"/>
      <point x="53" y="736" type="curve" smooth="yes"/>
      <point x="53" y="788"/>
      <point x="93" y="827"/>
      <point x="144" y="827" type="curve" smooth="yes"/>
      <point x="193" y="827"/>
      <point x="223" y="804"/>
      <point x="265" y="747" type="curve" smooth="yes"/>
      <point x="325" y="648" type="line"/>
    </contour>
    <contour>
      <point x="-30" y="1136" type="line"/>
      <point x="-30" y="1283" type="line"/>
      <point x="1300" y="1283" type="line"/>
      <point x="1300" y="1136" type="line"/>
    </contour>
    <contour>
      <point x="1272" y="680" type="curve" smooth="yes"/>
      <point x="1272" y="756"/>
      <point x="1191" y="815"/>
      <point x="1076" y="815" type="curve" smooth="yes"/>
      <point x="967" y="815"/>
      <point x="912" y="744"/>
      <point x="912" y="675" type="curve" smooth="yes"/>
      <point x="912" y="593"/>
      <point x="978" y="531"/>
      <point x="1073" y="531" type="curve" smooth="yes"/>
      <point x="1189" y="531"/>
      <point x="1272" y="602"/>
    </contour>
    <contour>
      <point x="1512" y="407" type="line"/>
      <point x="626" y="-156" type="line"/>
      <point x="514" y="-17" type="line"/>
      <point x="1429" y="563" type="line"/>
    </contour>
  </outline>
</glyph>
<glyph name="laradevaMAR" format="1">
  <advance width="1555"/>
  <outline>
    <component base="ladevaMAR"/>
    <component base="vattudeva" xOffset="1139" yOffset="14"/>
    <contour>
      <point x="721" y="-340" type="move" name="btm"/>
    </contour>
    <contour>
      <point x="1015" y="1283" type="move" name="top"/>
    </contour>
  </outline>
</glyph>
<glyph name="saprehalfdeva" format="1">
  <advance width="932"/>
  <outline>
    <contour>
      <point x="758" y="72" type="line"/>
      <point x="606" y="-30" type="line"/>
      <point x="101" y="655" type="line"/>
      <point x="69" y="698"/>
      <point x="52" y="731"/>
      <point x="52" y="769" type="curve" smooth="yes"/>
      <point x="52" y="816"/>
      <point x="87" y="857"/>
      <point x="143" y="857" type="curve" smooth="yes"/>
      <point x="182" y="857"/>
      <point x="212" y="836"/>
      <point x="238" y="802" type="curve" smooth="yes"/>
      <point x="376" y="612" type="line"/>
      <point x="375" y="591" type="line"/>
    </contour>
    <contour>
      <point x="250" y="647" type="line"/>
      <point x="410" y="690"/>
      <point x="480" y="781"/>
      <point x="480" y="942" type="curve" smooth="yes"/>
      <point x="480" y="1179" type="line"/>
      <point x="687" y="1179" type="line"/>
      <point x="687" y="909" type="line"/>
      <point x="687" y="726"/>
      <point x="601" y="558"/>
      <point x="365" y="480" type="curve"/>
    </contour>
    <contour>
      <point x="-30" y="1136" type="line"/>
      <point x="-30" y="1283" type="line"/>
      <point x="962" y="1283" type="line"/>
      <point x="962" y="1136" type="line"/>
    </contour>
    <contour>
      <point x="496" y="556" type="curve"/>
      <point x="572" y="705" type="line"/>
      <point x="682" y="650"/>
      <point x="815" y="627"/>
      <point x="927" y="627" type="curve" smooth="yes"/>
      <point x="1006" y="627"/>
      <point x="1087" y="639"/>
      <point x="1161" y="664" type="curve"/>
      <point x="1202" y="490" type="line"/>
      <point x="1127" y="466"/>
      <point x="1043" y="452"/>
      <point x="948" y="452" type="curve" smooth="yes"/>
      <point x="793" y="452"/>
      <point x="636" y="489"/>
    </contour>
  </outline>
</glyph>
<glyph name="shavaprehalfdeva" format="1">
  <advance width="980"/>
  <outline>
    <contour>
      <point x="172" y="430" type="line"/>
      <point x="78" y="583" type="line"/>
      <point x="362" y="742" type="line"/>
      <point x="576" y="861"/>
      <point x="641" y="936"/>
      <point x="641" y="1024" type="curve" smooth="yes"/>
      <point x="641" y="1098"/>
      <point x="584" y="1151"/>
      <point x="507" y="1151" type="curve" smooth="yes"/>
      <point x="416" y="1151"/>
      <point x="367" y="1097"/>
      <point x="367" y="1023" type="curve" smooth="yes"/>
      <point x="367" y="885"/>
      <point x="570" y="763"/>
      <point x="1173" y="723" type="curve"/>
      <point x="1193" y="565" type="line"/>
      <point x="423" y="598"/>
      <point x="182" y="819"/>
      <point x="182" y="1050" type="curve" smooth="yes"/>
      <point x="182" y="1189"/>
      <point x="290" y="1314"/>
      <point x="490" y="1314" type="curve" smooth="yes"/>
      <point x="698" y="1314"/>
      <point x="816" y="1182"/>
      <point x="816" y="1019" type="curve" smooth="yes"/>
      <point x="816" y="858"/>
      <point x="701" y="728"/>
      <point x="458" y="592" type="curve" smooth="yes"/>
    </contour>
    <contour>
      <point x="1051" y="209" type="curve" smooth="yes"/>
      <point x="1051" y="277"/>
      <point x="974" y="345"/>
      <point x="834" y="345" type="curve" smooth="yes"/>
      <point x="710" y="345"/>
      <point x="647" y="280"/>
      <point x="647" y="200" type="curve" smooth="yes"/>
      <point x="647" y="111"/>
      <point x="726" y="54"/>
      <point x="818" y="54" type="curve" smooth="yes"/>
      <point x="970" y="54"/>
      <point x="1051" y="129"/>
    </contour>
    <contour>
      <point x="1204" y="203" type="curve" smooth="yes"/>
      <point x="1204" y="51"/>
      <point x="1057" y="-90"/>
      <point x="840" y="-90" type="curve" smooth="yes"/>
      <point x="617" y="-90"/>
      <point x="475" y="52"/>
      <point x="475" y="228" type="curve" smooth="yes"/>
      <point x="475" y="367"/>
      <point x="580" y="487"/>
      <point x="798" y="487" type="curve" smooth="yes"/>
      <point x="1066" y="487"/>
      <point x="1204" y="347"/>
    </contour>
  </outline>
</glyph>
<glyph name="takhadeva" format="1">
  <advance width="2382"/>
  <outline>
    <contour>
      <point x="805" y="827" type="line"/>
      <point x="791" y="651" type="line"/>
      <point x="591" y="651" type="line"/>
      <point x="387" y="651"/>
      <point x="312" y="553"/>
      <point x="312" y="440" type="curve" smooth="yes"/>
      <point x="312" y="337"/>
      <point x="354" y="230"/>
      <point x="495" y="19" type="curve"/>
      <point x="325" y="-38" type="line"/>
      <point x="172" y="185"/>
      <point x="115" y="344"/>
      <point x="116" y="487" type="curve" smooth="yes"/>
      <point x="117" y="674"/>
      <point x="245" y="827"/>
      <point x="535" y="827" type="curve" smooth="yes"/>
    </contour>
    <contour>
      <point x="-30" y="1136" type="line"/>
      <point x="-30" y="1283" type="line"/>
      <point x="691" y="1283" type="line"/>
      <point x="691" y="1136" type="line"/>
    </contour>
    <component base="khadeva" xOffset="663"/>
  </outline>
</glyph>
<glyph name="taraprehalfdeva" format="1">
  <advance width="728"/>
  <outline>
    <contour>
      <point x="-30" y="1136" type="line"/>
      <point x="-30" y="1283" type="line"/>
      <point x="758" y="1283" type="line"/>
      <point x="758" y="1136" type="line"/>
    </contour>
    <contour>
      <point x="757" y="743" type="curve" smooth="yes"/>
      <point x="946" y="610" type="line"/>
      <point x="994" y="462" type="line"/>
      <point x="290" y="141" type="line"/>
      <point x="195" y="300" type="line"/>
      <point x="815" y="574" type="line"/>
      <point x="840" y="481" type="line"/>
      <point x="646" y="616" type="line"/>
      <point x="527" y="699"/>
      <point x="436" y="728"/>
      <point x="360" y="728" type="curve" smooth="yes"/>
      <point x="291" y="728"/>
      <point x="215" y="705"/>
      <point x="148" y="671" type="curve"/>
      <point x="94" y="851" type="line"/>
      <point x="166" y="885"/>
      <point x="255" y="910"/>
      <point x="339" y="910" type="curve" smooth="yes"/>
      <point x="454" y="910"/>
      <point x="572" y="872"/>
    </contour>
  </outline>
</glyph>
<glyph name="thaprehalfdeva" format="1">
  <advance width="877"/>
  <outline>
    <contour>
      <point x="703" y="967" type="curve" smooth="yes"/>
      <point x="703" y="767"/>
      <point x="546" y="629"/>
      <point x="325" y="567" type="curve"/>
      <point x="333" y="654" type="line"/>
      <point x="406" y="533"/>
      <point x="528" y="463"/>
      <point x="651" y="463" type="curve" smooth="yes"/>
      <point x="803" y="463"/>
      <point x="937" y="507"/>
      <point x="1087" y="660" type="curve"/>
      <point x="1175" y="506" type="line"/>
      <point x="1048" y="369"/>
      <point x="883" y="290"/>
      <point x="696" y="290" type="curve" smooth="yes"/>
      <point x="485" y="290"/>
      <point x="258" y="425"/>
      <point x="132" y="664" type="curve"/>
      <point x="132" y="672" type="line"/>
      <point x="384" y="738"/>
      <point x="527" y="836"/>
      <point x="527" y="987" type="curve" smooth="yes"/>
      <point x="527" y="1092"/>
      <point x="456" y="1165"/>
      <point x="366" y="1165" type="curve" smooth="yes"/>
      <point x="291" y="1165"/>
      <point x="254" y="1115"/>
      <point x="254" y="1050" type="curve" smooth="yes"/>
      <point x="254" y="972"/>
      <point x="333" y="897"/>
      <point x="518" y="872" type="curve"/>
      <point x="448" y="759" type="line"/>
      <point x="190" y="795"/>
      <point x="71" y="932"/>
      <point x="71" y="1081" type="curve" smooth="yes"/>
      <point x="71" y="1206"/>
      <point x="163" y="1320"/>
      <point x="340" y="1320" type="curve" smooth="yes"/>
      <point x="557" y="1320"/>
      <point x="703" y="1167"/>
    </contour>
  </outline>
</glyph>
<glyph name="ttattadeva" format="1">
  <advance width="1162"/>
  <outline>
    <contour>
      <point x="649" y="293" type="line"/>
      <point x="856" y="293" type="line"/>
      <point x="856" y="-48" type="line"/>
      <point x="615" y="-48" type="line"/>
      <point x="408" y="-48"/>
      <point x="328" y="-134"/>
      <point x="328" y="-234" type="curve" smooth="yes"/>
      <point x="328" y="-335"/>
      <point x="428" y="-412"/>
      <point x="602" y="-412" type="curve" smooth="yes"/>
      <point x="710" y="-412"/>
      <point x="819" y="-393"/>
      <point x="946" y="-343" type="curve"/>
      <point x="989" y="-509" type="line"/>
      <point x="865" y="-558"/>
      <point x="761" y="-578"/>
      <point x="622" y="-578" type="curve" smooth="yes"/>
      <point x="302" y="-578"/>
      <point x="124" y="-415"/>
      <point x="124" y="-215" type="curve" smooth="yes"/>
      <point x="124" y="-36"/>
      <point x="270" y="109"/>
      <point x="547" y="109" type="curve" smooth="yes"/>
      <point x="688" y="109" type="line"/>
      <point x="649" y="72" type="line"/>
    </contour>
    <contour>
      <point x="726" y="1174" type="line"/>
      <point x="932" y="1174" type="line"/>
      <point x="932" y="808" type="line"/>
      <point x="618" y="808" type="line"/>
      <point x="387" y="808"/>
      <point x="310" y="705"/>
      <point x="310" y="592" type="curve" smooth="yes"/>
      <point x="310" y="484"/>
      <point x="419" y="392"/>
      <point x="624" y="392" type="curve" smooth="yes"/>
      <point x="738" y="392"/>
      <point x="847" y="413"/>
      <point x="974" y="462" type="curve"/>
      <point x="1017" y="295" type="line"/>
      <point x="892" y="246"/>
      <point x="788" y="224"/>
      <point x="643" y="224" type="curve" smooth="yes"/>
      <point x="294" y="224"/>
      <point x="102" y="394"/>
      <point x="102" y="619" type="curve" smooth="yes"/>
      <point x="102" y="817"/>
      <point x="257" y="967"/>
      <point x="553" y="967" type="curve" smooth="yes"/>
      <point x="765" y="967" type="line"/>
      <point x="726" y="931" type="line"/>
    </contour>
    <contour>
      <point x="1192" y="1136" type="line"/>
      <point x="-30" y="1136" type="line"/>
      <point x="-30" y="1283" type="line"/>
      <point x="1192" y="1283" type="line"/>
    </contour>
    <contour>
      <point x="515" y="-576" type="move" name="btm"/>
    </contour>
    <contour>
      <point x="692" y="1283" type="move" name="top"/>
    </contour>
  </outline>
</glyph>
<glyph name="tthatthadeva" format="1">
  <advance width="1277"/>
  <outline>
    <contour>
      <point x="933" y="-227" type="curve" smooth="yes"/>
      <point x="933" y="-144"/>
      <point x="886" y="-79"/>
      <point x="812" y="-42" type="curve"/>
      <point x="615" y="-42" type="line"/>
      <point x="405" y="-42"/>
      <point x="322" y="-125"/>
      <point x="322" y="-232" type="curve" smooth="yes"/>
      <point x="322" y="-336"/>
      <point x="426" y="-428"/>
      <point x="626" y="-428" type="curve" smooth="yes"/>
      <point x="836" y="-428"/>
      <point x="933" y="-341"/>
    </contour>
    <contour>
      <point x="690" y="290" type="line"/>
      <point x="896" y="290" type="line"/>
      <point x="896" y="52" type="line"/>
      <point x="868" y="112" type="line"/>
      <point x="1026" y="33"/>
      <point x="1115" y="-89"/>
      <point x="1115" y="-247" type="curve" smooth="yes"/>
      <point x="1115" y="-423"/>
      <point x="965" y="-582"/>
      <point x="652" y="-582" type="curve" smooth="yes"/>
      <point x="312" y="-582"/>
      <point x="127" y="-404"/>
      <point x="127" y="-205" type="curve" smooth="yes"/>
      <point x="127" y="-28"/>
      <point x="280" y="119"/>
      <point x="558" y="119" type="curve" smooth="yes"/>
      <point x="736" y="119" type="line"/>
      <point x="690" y="75" type="line"/>
    </contour>
    <contour>
      <point x="973" y="607" type="curve" smooth="yes"/>
      <point x="973" y="694"/>
      <point x="933" y="760"/>
      <point x="865" y="808" type="curve"/>
      <point x="617" y="808" type="line"/>
      <point x="395" y="808"/>
      <point x="301" y="717"/>
      <point x="301" y="600" type="curve" smooth="yes"/>
      <point x="301" y="488"/>
      <point x="418" y="388"/>
      <point x="640" y="388" type="curve" smooth="yes"/>
      <point x="879" y="388"/>
      <point x="973" y="495"/>
    </contour>
    <contour>
      <point x="1307" y="1136" type="line"/>
      <point x="-30" y="1136" type="line"/>
      <point x="-30" y="1283" type="line"/>
      <point x="1307" y="1283" type="line"/>
    </contour>
    <contour>
      <point x="836" y="1167" type="line"/>
      <point x="1042" y="1167" type="line"/>
      <point x="1042" y="862" type="line"/>
      <point x="1005" y="928" type="line"/>
      <point x="1106" y="836"/>
      <point x="1168" y="729"/>
      <point x="1168" y="585" type="curve" smooth="yes"/>
      <point x="1168" y="406"/>
      <point x="1008" y="228"/>
      <point x="666" y="228" type="curve" smooth="yes"/>
      <point x="303" y="227"/>
      <point x="101" y="415"/>
      <point x="101" y="629" type="curve" smooth="yes"/>
      <point x="101" y="822"/>
      <point x="265" y="967"/>
      <point x="548" y="967" type="curve" smooth="yes"/>
      <point x="886" y="967" type="line"/>
      <point x="836" y="924" type="line"/>
    </contour>
    <contour>
      <point x="515" y="-576" type="move" name="btm"/>
    </contour>
    <contour>
      <point x="786" y="1283" type="move" name="top"/>
    </contour>
  </outline>
</glyph>
